<svg width="28" height="25" viewBox="0 0 28 25" fill="none" xmlns="http://www.w3.org/2000/svg">
<g clip-path="url(#clip0_153_457)">
<path d="M28.0003 8.8558C27.7265 9.75725 27.1597 10.2963 26.2233 10.3838C26.0591 10.399 26.0487 10.5252 26.018 10.6379C25.5733 12.2834 25.1298 13.9279 24.6873 15.5715C24.3588 16.8028 24.0154 18.0313 23.7017 19.2671C23.6278 19.556 23.4859 19.6182 23.2198 19.6182C17.983 19.6115 12.7462 19.6098 7.50939 19.6132C6.58999 19.6132 5.67003 19.6059 4.75008 19.6177C4.50859 19.6211 4.39469 19.5386 4.33007 19.2957C3.56345 16.427 2.78915 13.5611 2.02252 10.6929C1.96776 10.4887 1.89275 10.3911 1.66385 10.3676C0.708307 10.2688 -0.00137628 9.42797 0.00245686 8.43565C0.00574241 7.48203 0.714329 6.65069 1.61402 6.54355C2.62323 6.42351 3.50759 7.03775 3.72827 8.01942C3.79048 8.28341 3.79366 8.55839 3.73758 8.82383C3.70582 8.96743 3.73758 9.04821 3.86079 9.12169C5.23744 9.94442 6.61225 10.7698 7.98525 11.5977C8.18621 11.7195 8.21961 11.5523 8.28423 11.4435C9.2929 9.73519 10.3003 8.02634 11.3064 6.31693C11.7992 5.4783 12.2888 4.63407 12.7931 3.80442C12.9125 3.60696 12.9026 3.48916 12.7279 3.33209C12.4275 3.05535 12.2246 2.68474 12.1509 2.27779C12.0771 1.87085 12.1365 1.45034 12.32 1.08155C12.7444 0.253584 13.5915 -0.155911 14.4468 0.0544461C14.8487 0.151598 15.2081 0.381775 15.4693 0.709331C15.7306 1.03689 15.8791 1.44354 15.8919 1.86632C15.9116 2.46374 15.7151 2.96467 15.2742 3.35509C15.1319 3.48075 15.1067 3.5834 15.2096 3.75674C16.733 6.3345 18.2519 8.91489 19.7661 11.4979C19.8472 11.6364 19.9151 11.674 20.0657 11.5826C21.4226 10.7629 22.7823 9.94816 24.1447 9.13852C24.2717 9.06279 24.309 8.98314 24.2876 8.82327C24.1157 7.58917 24.8352 6.65238 26.0344 6.52672C26.801 6.44651 27.6224 6.98783 27.9017 7.75689C27.9335 7.8444 27.9685 7.93023 28.0019 8.01662L28.0003 8.8558Z" fill="url(#paint0_linear_153_457)"/>
<path d="M13.9923 24.9955H5.14157C4.52443 24.9955 4.01736 24.7712 3.68497 24.222C3.5378 23.9815 3.45433 23.7059 3.44279 23.4223C3.43125 23.1388 3.49204 22.857 3.61917 22.6048C3.74629 22.3526 3.93536 22.1387 4.16775 21.9842C4.40014 21.8296 4.66782 21.7398 4.94443 21.7235C5.02602 21.7179 5.10871 21.7179 5.1903 21.7179C11.0725 21.7179 16.9546 21.7179 22.8364 21.7179C23.6496 21.7179 24.2333 22.1061 24.4852 22.805C24.8609 23.8473 24.1151 24.9624 23.0067 24.9899C22.2691 25.0079 21.5315 24.995 20.7939 24.995L13.9923 24.9955Z" fill="url(#paint1_linear_153_457)"/>
</g>
<defs>
<linearGradient id="paint0_linear_153_457" x1="14.0022" y1="-0.00012207" x2="14.0022" y2="19.6182" gradientUnits="userSpaceOnUse">
<stop stop-color="#FFEC66"/>
<stop offset="0.458333" stop-color="#BC871A"/>
<stop offset="0.96875" stop-color="#FFEC66"/>
</linearGradient>
<linearGradient id="paint1_linear_153_457" x1="14.0125" y1="21.7179" x2="14.0125" y2="24.9995" gradientUnits="userSpaceOnUse">
<stop stop-color="#FFEC66"/>
<stop offset="0.458333" stop-color="#BC871A"/>
<stop offset="0.96875" stop-color="#FFEC66"/>
</linearGradient>
<clipPath id="clip0_153_457">
<rect width="28" height="25" fill="white"/>
</clipPath>
</defs>
</svg>
